<svg width="38" height="33" viewBox="0 0 38 33" fill="none" xmlns="http://www.w3.org/2000/svg">
<path d="M28.1286 7.34193C27.3042 5.18038 26.0131 3.49389 24.2553 2.28246C22.4975 1.07104 20.3336 0.465332 17.7636 0.465332C14.4419 0.465332 11.6961 1.5283 9.52608 3.65422C7.35609 5.78015 6.16199 8.45834 5.94378 11.6888C4.31932 12.2114 2.98581 13.2031 1.94324 14.6639C0.900677 16.1247 0.379395 17.7697 0.379395 19.5987C0.379395 21.8315 1.15526 23.7674 2.70698 25.4064C4.2587 27.0454 6.10138 27.8648 8.235 27.8648H9.25332C9.42304 27.8648 9.58063 27.8351 9.72611 27.7758C9.87158 27.7164 9.99281 27.6332 10.0898 27.5264C10.1868 27.4195 10.2656 27.2948 10.3262 27.1522C10.3868 27.0097 10.4171 26.8672 10.4171 26.7247C10.4171 26.4159 10.308 26.1487 10.0898 25.923C9.87158 25.6973 9.59276 25.5845 9.25332 25.5845H8.235C6.73176 25.5845 5.42856 24.9907 4.32538 23.803C3.2222 22.6153 2.67061 21.2139 2.67061 19.5987C2.67061 18.1735 3.11916 16.8908 4.01625 15.7506C4.91334 14.6105 6.00439 13.9335 7.28942 13.7197L8.3441 13.5416L8.27137 12.4727H8.235C8.235 9.64601 9.10784 7.31818 10.8535 5.48917C12.5992 3.66016 14.9026 2.74566 17.7636 2.74566C22.1035 2.74566 24.9039 4.75281 26.1647 8.76713L26.4193 9.55099L27.2557 9.58663C28.6862 9.61038 30.0197 9.96668 31.2563 10.6555C32.4928 11.3444 33.4869 12.2886 34.2385 13.4881C34.9901 14.6877 35.3659 15.9763 35.3659 17.354C35.3659 18.0191 35.2932 18.6782 35.1477 19.3314C35.0022 19.9847 34.8022 20.6141 34.5476 21.2198C34.293 21.8255 33.9657 22.3956 33.5657 22.9301C33.1656 23.4645 32.7292 23.9277 32.2564 24.3197C31.7836 24.7116 31.2442 25.0204 30.638 25.246C30.0319 25.4717 29.4015 25.5845 28.7468 25.5845H28.4195C28.2741 25.5845 28.1286 25.6142 27.9831 25.6736C27.8376 25.733 27.7103 25.8161 27.6012 25.923C27.4921 26.0299 27.4073 26.1487 27.3467 26.2793C27.286 26.4099 27.2557 26.5584 27.2557 26.7247C27.2557 27.0335 27.3709 27.3007 27.6012 27.5264C27.8316 27.752 28.1043 27.8648 28.4195 27.8648C29.8258 27.8173 31.1229 27.4788 32.311 26.8494C33.499 26.2199 34.4688 25.4004 35.2204 24.3909C35.9721 23.3814 36.56 22.2709 36.9843 21.0595C37.4086 19.8481 37.6208 18.6129 37.6208 17.354C37.6208 14.7649 36.7055 12.5202 34.8749 10.6199C33.0444 8.71963 30.7956 7.62697 28.1286 7.34193ZM23.8735 25.6914C23.728 25.5251 23.5401 25.442 23.3098 25.442C23.0794 25.442 22.8794 25.5251 22.7097 25.6914L20.1639 28.4706V16.9977C20.1639 16.9264 20.1518 16.8492 20.1275 16.7661C20.1033 16.6829 20.079 16.6117 20.0548 16.5523C20.0305 16.4929 19.9942 16.4276 19.9457 16.3563C19.8972 16.2851 19.8487 16.2257 19.8002 16.1782C19.7517 16.1307 19.6971 16.0891 19.6365 16.0535C19.5759 16.0178 19.5092 15.9822 19.4365 15.9466C19.3638 15.911 19.291 15.8872 19.2183 15.8753C19.1456 15.8635 19.0728 15.8575 19.0001 15.8575C18.6606 15.8575 18.3818 15.9703 18.1636 16.196C17.9454 16.4217 17.8363 16.6889 17.8363 16.9977V28.4706L15.3632 25.7627C15.1935 25.5964 14.9935 25.5073 14.7631 25.4954C14.5328 25.4836 14.3328 25.5489 14.1631 25.6914L13.8721 25.8696C13.7024 26.0358 13.6175 26.2377 13.6175 26.4753C13.6175 26.7128 13.7024 26.9147 13.8721 27.081L18.0909 31.606V31.6416L18.3818 31.9267C18.5515 32.0929 18.7516 32.1761 18.9819 32.1761C19.2122 32.1761 19.4123 32.0929 19.582 31.9267L19.8729 31.6416V31.606L24.1644 27.0097C24.5281 26.6534 24.5281 26.2971 24.1644 25.9408L23.8735 25.6914Z" fill="#039BF0"/>
</svg>
